<?xml version="1.0" encoding="UTF-8" standalone="no"?>
<!DOCTYPE svg PUBLIC "-//W3C//DTD SVG 1.1//EN" "http://www.w3.org/Graphics/SVG/1.1/DTD/svg11.dtd">
<svg width="100%" height="100%" viewBox="0 0 69 77" version="1.1" xmlns="http://www.w3.org/2000/svg" xmlns:xlink="http://www.w3.org/1999/xlink" xml:space="preserve" xmlns:serif="http://www.serif.com/" style="fill-rule:evenodd;clip-rule:evenodd;stroke-linejoin:round;stroke-miterlimit:2;">
    <g transform="matrix(0.3432,0,0,0.3432,22.5558,24.0444)">
        <g id="_2OD6RD">
            <g>
                <g transform="matrix(1,0,0,1,-302.322,-90.209)">
                    <path d="M258.872,136.813C257.954,136.813 257.211,136.07 257.211,135.153L257.211,121.865C257.211,120.948 257.954,120.205 258.872,120.205C259.79,120.205 260.532,120.948 260.532,121.865L260.532,135.153C260.532,136.07 259.79,136.813 258.872,136.813Z" style="fill:white;fill-rule:nonzero;"/>
                </g>
                <g transform="matrix(1,0,0,1,-302.322,-90.209)">
                    <path d="M397.282,139.028C396.364,139.028 395.621,138.285 395.621,137.367L395.621,119.651C395.621,118.733 396.364,117.99 397.282,117.99C398.199,117.99 398.943,118.733 398.943,119.651L398.943,137.367C398.943,138.285 398.199,139.028 397.282,139.028Z" style="fill:white;fill-rule:nonzero;"/>
                </g>
                <g transform="matrix(1,0,0,1,-302.322,-90.209)">
                    <path d="M352.991,139.028C352.073,139.028 351.33,138.285 351.33,137.367L351.33,119.651C351.33,118.733 352.073,117.99 352.991,117.99C353.908,117.99 354.651,118.733 354.651,119.651L354.651,137.367C354.651,138.285 353.908,139.028 352.991,139.028Z" style="fill:white;fill-rule:nonzero;"/>
                </g>
                <g transform="matrix(1,0,0,1,-302.322,-90.209)">
                    <path d="M292.09,136.813C291.173,136.813 290.43,136.07 290.43,135.153L290.43,121.865C290.43,120.948 291.173,120.205 292.09,120.205C293.008,120.205 293.751,120.948 293.751,121.865L293.751,135.153C293.751,136.07 293.008,136.813 292.09,136.813Z" style="fill:white;fill-rule:nonzero;"/>
                </g>
                <g transform="matrix(1,0,0,1,-302.322,-90.209)">
                    <path d="M347.454,136.813C346.537,136.813 345.793,136.07 345.793,135.153L345.793,121.865C345.793,120.948 346.537,120.205 347.454,120.205C348.372,120.205 349.115,120.948 349.115,121.865L349.115,135.153C349.115,136.07 348.372,136.813 347.454,136.813Z" style="fill:white;fill-rule:nonzero;"/>
                </g>
                <g transform="matrix(1,0,0,1,-302.322,-90.209)">
                    <path d="M386.209,134.599C385.292,134.599 384.548,133.855 384.548,132.938L384.548,124.08C384.548,123.163 385.292,122.419 386.209,122.419C387.126,122.419 387.87,123.163 387.87,124.08L387.87,132.938C387.87,133.855 387.126,134.599 386.209,134.599Z" style="fill:white;fill-rule:nonzero;"/>
                </g>
                <g transform="matrix(1,0,0,1,-302.322,-90.209)">
                    <path d="M391.745,134.599C390.828,134.599 390.084,133.855 390.084,132.938L390.084,124.08C390.084,123.163 390.828,122.419 391.745,122.419C392.663,122.419 393.406,123.163 393.406,124.08L393.406,132.938C393.406,133.855 392.663,134.599 391.745,134.599Z" style="fill:white;fill-rule:nonzero;"/>
                </g>
                <g transform="matrix(1,0,0,1,-302.322,-90.209)">
                    <path d="M264.409,139.028C263.491,139.028 262.748,138.285 262.748,137.367L262.748,119.651C262.748,118.733 263.491,117.99 264.409,117.99C265.326,117.99 266.069,118.733 266.069,119.651L266.069,137.367C266.069,138.285 265.326,139.028 264.409,139.028Z" style="fill:white;fill-rule:nonzero;"/>
                </g>
                <g transform="matrix(1,0,0,1,-302.322,-90.209)">
                    <path d="M281.018,139.028C280.1,139.028 279.357,138.285 279.357,137.367L279.357,119.651C279.357,118.733 280.1,117.99 281.018,117.99C281.935,117.99 282.679,118.733 282.679,119.651L282.679,137.367C282.679,138.285 281.935,139.028 281.018,139.028Z" style="fill:white;fill-rule:nonzero;"/>
                </g>
                <g transform="matrix(1,0,0,1,-302.322,-90.209)">
                    <path d="M297.627,139.028C296.709,139.028 295.966,138.285 295.966,137.367L295.966,119.651C295.966,118.733 296.709,117.99 297.627,117.99C298.544,117.99 299.288,118.733 299.288,119.651L299.288,137.367C299.288,138.285 298.544,139.028 297.627,139.028Z" style="fill:white;fill-rule:nonzero;"/>
                </g>
                <g transform="matrix(1,0,0,1,-302.322,-90.209)">
                    <path d="M269.945,143.457C269.027,143.457 268.284,142.714 268.284,141.796L268.284,115.222C268.284,114.304 269.027,113.561 269.945,113.561C270.862,113.561 271.606,114.304 271.606,115.222L271.606,141.796C271.606,142.714 270.862,143.457 269.945,143.457Z" style="fill:white;fill-rule:nonzero;"/>
                </g>
                <g transform="matrix(1,0,0,1,-302.322,-90.209)">
                    <path d="M286.554,143.457C285.637,143.457 284.893,142.714 284.893,141.796L284.893,115.222C284.893,114.304 285.637,113.561 286.554,113.561C287.472,113.561 288.215,114.304 288.215,115.222L288.215,141.796C288.215,142.714 287.472,143.457 286.554,143.457Z" style="fill:white;fill-rule:nonzero;"/>
                </g>
                <g transform="matrix(1,0,0,1,-302.322,-90.209)">
                    <path d="M341.918,143.457C341,143.457 340.257,142.714 340.257,141.796L340.257,115.222C340.257,114.304 341,113.561 341.918,113.561C342.835,113.561 343.579,114.304 343.579,115.222L343.579,141.796C343.579,142.714 342.835,143.457 341.918,143.457Z" style="fill:white;fill-rule:nonzero;"/>
                </g>
                <g transform="matrix(1,0,0,1,-302.322,-90.209)">
                    <path d="M303.163,143.457C302.246,143.457 301.502,142.714 301.502,141.796L301.502,115.222C301.502,114.304 302.246,113.561 303.163,113.561C304.081,113.561 304.824,114.304 304.824,115.222L304.824,141.796C304.824,142.714 304.081,143.457 303.163,143.457Z" style="fill:white;fill-rule:nonzero;"/>
                </g>
                <g transform="matrix(1,0,0,1,-302.322,-90.209)">
                    <path d="M369.6,146.779C368.682,146.779 367.939,146.036 367.939,145.118L367.939,111.9C367.939,110.982 368.682,110.239 369.6,110.239C370.517,110.239 371.261,110.982 371.261,111.9L371.261,145.118C371.261,146.036 370.517,146.779 369.6,146.779Z" style="fill:white;fill-rule:nonzero;"/>
                </g>
                <g transform="matrix(1,0,0,1,-302.322,-90.209)">
                    <path d="M375.136,143.457C374.219,143.457 373.475,142.714 373.475,141.796L373.475,115.222C373.475,114.304 374.219,113.561 375.136,113.561C376.054,113.561 376.797,114.304 376.797,115.222L376.797,141.796C376.797,142.714 376.054,143.457 375.136,143.457Z" style="fill:white;fill-rule:nonzero;"/>
                </g>
                <g transform="matrix(1,0,0,1,-302.322,-90.209)">
                    <path d="M380.672,140.135C379.755,140.135 379.012,139.392 379.012,138.475L379.012,118.543C379.012,117.626 379.755,116.883 380.672,116.883C381.59,116.883 382.333,117.626 382.333,118.543L382.333,138.475C382.333,139.392 381.59,140.135 380.672,140.135Z" style="fill:white;fill-rule:nonzero;"/>
                </g>
                <g transform="matrix(1,0,0,1,-302.322,-90.209)">
                    <path d="M358.527,143.457C357.609,143.457 356.866,142.714 356.866,141.796L356.866,115.222C356.866,114.304 357.609,113.561 358.527,113.561C359.444,113.561 360.188,114.304 360.188,115.222L360.188,141.796C360.188,142.714 359.444,143.457 358.527,143.457Z" style="fill:white;fill-rule:nonzero;"/>
                </g>
                <g transform="matrix(1,0,0,1,-302.322,-90.209)">
                    <path d="M402.818,143.457C401.9,143.457 401.157,142.714 401.157,141.796L401.157,115.222C401.157,114.304 401.9,113.561 402.818,113.561C403.736,113.561 404.479,114.304 404.479,115.222L404.479,141.796C404.479,142.714 403.736,143.457 402.818,143.457Z" style="fill:white;fill-rule:nonzero;"/>
                </g>
                <g transform="matrix(1,0,0,1,-302.322,-90.209)">
                    <path d="M408.354,145.672C407.437,145.672 406.693,144.928 406.693,144.011L406.693,113.007C406.693,112.09 407.437,111.346 408.354,111.346C409.272,111.346 410.016,112.09 410.016,113.007L410.016,144.011C410.016,144.928 409.272,145.672 408.354,145.672Z" style="fill:white;fill-rule:nonzero;"/>
                </g>
                <g transform="matrix(1,0,0,1,-302.322,-90.209)">
                    <path d="M413.891,152.315C412.973,152.315 412.23,151.572 412.23,150.654L412.23,106.363C412.23,105.446 412.973,104.703 413.891,104.703C414.809,104.703 415.552,105.446 415.552,106.363L415.552,150.654C415.552,151.572 414.809,152.315 413.891,152.315Z" style="fill:white;fill-rule:nonzero;"/>
                </g>
                <g transform="matrix(1,0,0,1,-302.322,-90.209)">
                    <path d="M336.381,147.886C335.464,147.886 334.721,147.143 334.721,146.226L334.721,110.792C334.721,109.875 335.464,109.132 336.381,109.132C337.299,109.132 338.042,109.875 338.042,110.792L338.042,146.226C338.042,147.143 337.299,147.886 336.381,147.886Z" style="fill:white;fill-rule:nonzero;"/>
                </g>
                <g transform="matrix(1,0,0,1,-302.322,-90.209)">
                    <path d="M275.481,154.53C274.564,154.53 273.82,153.787 273.82,152.869L273.82,104.149C273.82,103.231 274.564,102.488 275.481,102.488C276.399,102.488 277.142,103.231 277.142,104.149L277.142,152.869C277.142,153.787 276.399,154.53 275.481,154.53Z" style="fill:white;fill-rule:nonzero;"/>
                </g>
                <g transform="matrix(1,0,0,1,-302.322,-90.209)">
                    <path d="M319.772,154.53C318.855,154.53 318.111,153.787 318.111,152.869L318.111,104.149C318.111,103.231 318.855,102.488 319.772,102.488C320.69,102.488 321.433,103.231 321.433,104.149L321.433,152.869C321.433,153.787 320.69,154.53 319.772,154.53Z" style="fill:white;fill-rule:nonzero;"/>
                </g>
                <g transform="matrix(1,0,0,1,-302.322,-90.209)">
                    <path d="M330.845,154.53C329.928,154.53 329.184,153.787 329.184,152.869L329.184,104.149C329.184,103.231 329.928,102.488 330.845,102.488C331.763,102.488 332.506,103.231 332.506,104.149L332.506,152.869C332.506,153.787 331.763,154.53 330.845,154.53Z" style="fill:white;fill-rule:nonzero;"/>
                </g>
                <g transform="matrix(1,0,0,1,-302.322,-90.209)">
                    <path d="M364.063,154.53C363.146,154.53 362.402,153.787 362.402,152.869L362.402,104.149C362.402,103.231 363.146,102.488 364.063,102.488C364.981,102.488 365.724,103.231 365.724,104.149L365.724,152.869C365.724,153.787 364.981,154.53 364.063,154.53Z" style="fill:white;fill-rule:nonzero;"/>
                </g>
                <g transform="matrix(1,0,0,1,-302.322,-90.209)">
                    <path d="M308.7,151.208C307.782,151.208 307.039,150.465 307.039,149.547L307.039,107.471C307.039,106.553 307.782,105.81 308.7,105.81C309.617,105.81 310.36,106.553 310.36,107.471L310.36,149.547C310.36,150.465 309.617,151.208 308.7,151.208Z" style="fill:white;fill-rule:nonzero;"/>
                </g>
                <g transform="matrix(1,0,0,1,-302.322,-90.209)">
                    <path d="M314.236,151.208C313.318,151.208 312.575,150.465 312.575,149.547L312.575,107.471C312.575,106.553 313.318,105.81 314.236,105.81C315.153,105.81 315.897,106.553 315.897,107.471L315.897,149.547C315.897,150.465 315.153,151.208 314.236,151.208Z" style="fill:white;fill-rule:nonzero;"/>
                </g>
                <g transform="matrix(1,0,0,1,-302.322,-90.209)">
                    <path d="M325.309,151.208C324.391,151.208 323.648,150.465 323.648,149.547L323.648,107.471C323.648,106.553 324.391,105.81 325.309,105.81C326.226,105.81 326.97,106.553 326.97,107.471L326.97,149.547C326.97,150.465 326.226,151.208 325.309,151.208Z" style="fill:white;fill-rule:nonzero;"/>
                </g>
            </g>
        </g>
    </g>
</svg>
