<?xml version="1.0" encoding="UTF-8" standalone="no"?>
<!DOCTYPE svg PUBLIC "-//W3C//DTD SVG 1.1//EN" "http://www.w3.org/Graphics/SVG/1.1/DTD/svg11.dtd">
<svg width="100%" height="100%" viewBox="0 0 69 77" version="1.1" xmlns="http://www.w3.org/2000/svg" xmlns:xlink="http://www.w3.org/1999/xlink" xml:space="preserve" xmlns:serif="http://www.serif.com/" style="fill-rule:evenodd;clip-rule:evenodd;stroke-linejoin:round;stroke-miterlimit:2;">
    <g id="_2OD6RD" transform="matrix(0.337332,0,0,0.337332,21.9113,25.2433)">
        <g>
            <g transform="matrix(1,0,0,1,-302.322,-275.954)">
                <path d="M258.872,320.345C257.954,320.345 257.211,319.601 257.211,318.684L257.211,309.825C257.211,308.908 257.954,308.165 258.872,308.165C259.79,308.165 260.532,308.908 260.532,309.825L260.532,318.684C260.532,319.601 259.79,320.345 258.872,320.345Z" style="fill:white;fill-rule:nonzero;"/>
            </g>
            <g transform="matrix(1,0,0,1,-302.322,-275.954)">
                <path d="M303.163,320.345C302.246,320.345 301.502,319.601 301.502,318.684L301.502,309.825C301.502,308.908 302.246,308.165 303.163,308.165C304.081,308.165 304.824,308.908 304.824,309.825L304.824,318.684C304.824,319.601 304.081,320.345 303.163,320.345Z" style="fill:white;fill-rule:nonzero;"/>
            </g>
            <g transform="matrix(1,0,0,1,-302.322,-275.954)">
                <path d="M336.381,320.345C335.464,320.345 334.721,319.601 334.721,318.684L334.721,309.825C334.721,308.908 335.464,308.165 336.381,308.165C337.299,308.165 338.042,308.908 338.042,309.825L338.042,318.684C338.042,319.601 337.299,320.345 336.381,320.345Z" style="fill:white;fill-rule:nonzero;"/>
            </g>
            <g transform="matrix(1,0,0,1,-302.322,-275.954)">
                <path d="M308.7,319.237C307.782,319.237 307.039,318.494 307.039,317.576L307.039,310.933C307.039,310.015 307.782,309.272 308.7,309.272C309.617,309.272 310.36,310.015 310.36,310.933L310.36,317.576C310.36,318.494 309.617,319.237 308.7,319.237Z" style="fill:white;fill-rule:nonzero;"/>
            </g>
            <g transform="matrix(1,0,0,1,-302.322,-275.954)">
                <path d="M330.845,319.237C329.928,319.237 329.184,318.494 329.184,317.576L329.184,310.933C329.184,310.015 329.928,309.272 330.845,309.272C331.763,309.272 332.506,310.015 332.506,310.933L332.506,317.576C332.506,318.494 331.763,319.237 330.845,319.237Z" style="fill:white;fill-rule:nonzero;"/>
            </g>
            <g transform="matrix(1,0,0,1,-302.322,-275.954)">
                <path d="M314.236,317.022C313.318,317.022 312.575,316.279 312.575,315.362L312.575,313.147C312.575,312.229 313.318,311.486 314.236,311.486C315.153,311.486 315.897,312.229 315.897,313.147L315.897,315.362C315.897,316.279 315.153,317.022 314.236,317.022Z" style="fill:white;fill-rule:nonzero;"/>
            </g>
            <g transform="matrix(1,0,0,1,-302.322,-275.954)">
                <path d="M319.772,317.022C318.855,317.022 318.111,316.279 318.111,315.362L318.111,313.147C318.111,312.229 318.855,311.486 319.772,311.486C320.69,311.486 321.433,312.229 321.433,313.147L321.433,315.362C321.433,316.279 320.69,317.022 319.772,317.022Z" style="fill:white;fill-rule:nonzero;"/>
            </g>
            <g transform="matrix(1,0,0,1,-302.322,-275.954)">
                <path d="M325.309,318.13C324.391,318.13 323.648,317.387 323.648,316.469L323.648,312.04C323.648,311.123 324.391,310.379 325.309,310.379C326.226,310.379 326.97,311.123 326.97,312.04L326.97,316.469C326.97,317.387 326.226,318.13 325.309,318.13Z" style="fill:white;fill-rule:nonzero;"/>
            </g>
            <g transform="matrix(1,0,0,1,-302.322,-275.954)">
                <path d="M264.409,323.667C263.491,323.667 262.748,322.923 262.748,322.005L262.748,306.503C262.748,305.586 263.491,304.843 264.409,304.843C265.326,304.843 266.069,305.586 266.069,306.503L266.069,322.005C266.069,322.923 265.326,323.667 264.409,323.667Z" style="fill:white;fill-rule:nonzero;"/>
            </g>
            <g transform="matrix(1,0,0,1,-302.322,-275.954)">
                <path d="M297.627,323.667C296.709,323.667 295.966,322.923 295.966,322.005L295.966,306.503C295.966,305.586 296.709,304.843 297.627,304.843C298.544,304.843 299.288,305.586 299.288,306.503L299.288,322.005C299.288,322.923 298.544,323.667 297.627,323.667Z" style="fill:white;fill-rule:nonzero;"/>
            </g>
            <g transform="matrix(1,0,0,1,-302.322,-275.954)">
                <path d="M341.918,323.667C341,323.667 340.257,322.923 340.257,322.005L340.257,306.503C340.257,305.586 341,304.843 341.918,304.843C342.835,304.843 343.579,305.586 343.579,306.503L343.579,322.005C343.579,322.923 342.835,323.667 341.918,323.667Z" style="fill:white;fill-rule:nonzero;"/>
            </g>
            <g transform="matrix(1,0,0,1,-302.322,-275.954)">
                <path d="M269.945,326.988C269.027,326.988 268.284,326.245 268.284,325.327L268.284,303.182C268.284,302.264 269.027,301.521 269.945,301.521C270.862,301.521 271.606,302.264 271.606,303.182L271.606,325.327C271.606,326.245 270.862,326.988 269.945,326.988Z" style="fill:white;fill-rule:nonzero;"/>
            </g>
            <g transform="matrix(1,0,0,1,-302.322,-275.954)">
                <path d="M292.09,326.988C291.173,326.988 290.43,326.245 290.43,325.327L290.43,303.182C290.43,302.264 291.173,301.521 292.09,301.521C293.008,301.521 293.751,302.264 293.751,303.182L293.751,325.327C293.751,326.245 293.008,326.988 292.09,326.988Z" style="fill:white;fill-rule:nonzero;"/>
            </g>
            <g transform="matrix(1,0,0,1,-302.322,-275.954)">
                <path d="M352.991,326.988C352.073,326.988 351.33,326.245 351.33,325.327L351.33,303.182C351.33,302.264 352.073,301.521 352.991,301.521C353.908,301.521 354.651,302.264 354.651,303.182L354.651,325.327C354.651,326.245 353.908,326.988 352.991,326.988Z" style="fill:white;fill-rule:nonzero;"/>
            </g>
            <g transform="matrix(1,0,0,1,-302.322,-275.954)">
                <path d="M347.454,326.988C346.537,326.988 345.793,326.245 345.793,325.327L345.793,303.182C345.793,302.264 346.537,301.521 347.454,301.521C348.372,301.521 349.115,302.264 349.115,303.182L349.115,325.327C349.115,326.245 348.372,326.988 347.454,326.988Z" style="fill:white;fill-rule:nonzero;"/>
            </g>
            <g transform="matrix(1,0,0,1,-302.322,-275.954)">
                <path d="M275.481,331.417C274.564,331.417 273.82,330.674 273.82,329.756L273.82,298.752C273.82,297.835 274.564,297.092 275.481,297.092C276.399,297.092 277.142,297.835 277.142,298.752L277.142,329.756C277.142,330.674 276.399,331.417 275.481,331.417Z" style="fill:white;fill-rule:nonzero;"/>
            </g>
            <g transform="matrix(1,0,0,1,-302.322,-275.954)">
                <path d="M286.554,331.417C285.637,331.417 284.893,330.674 284.893,329.756L284.893,298.752C284.893,297.835 285.637,297.092 286.554,297.092C287.472,297.092 288.215,297.835 288.215,298.752L288.215,329.756C288.215,330.674 287.472,331.417 286.554,331.417Z" style="fill:white;fill-rule:nonzero;"/>
            </g>
            <g transform="matrix(1,0,0,1,-302.322,-275.954)">
                <path d="M364.063,326.988C363.146,326.988 362.402,326.245 362.402,325.327L362.402,303.182C362.402,302.264 363.146,301.521 364.063,301.521C364.981,301.521 365.724,302.264 365.724,303.182L365.724,325.327C365.724,326.245 364.981,326.988 364.063,326.988Z" style="fill:white;fill-rule:nonzero;"/>
            </g>
            <g transform="matrix(1,0,0,1,-302.322,-275.954)">
                <path d="M369.6,325.881C368.682,325.881 367.939,325.138 367.939,324.22L367.939,304.289C367.939,303.372 368.682,302.628 369.6,302.628C370.517,302.628 371.261,303.372 371.261,304.289L371.261,324.22C371.261,325.138 370.517,325.881 369.6,325.881Z" style="fill:white;fill-rule:nonzero;"/>
            </g>
            <g transform="matrix(1,0,0,1,-302.322,-275.954)">
                <path d="M375.136,323.667C374.219,323.667 373.475,322.923 373.475,322.005L373.475,306.503C373.475,305.586 374.219,304.843 375.136,304.843C376.054,304.843 376.797,305.586 376.797,306.503L376.797,322.005C376.797,322.923 376.054,323.667 375.136,323.667Z" style="fill:white;fill-rule:nonzero;"/>
            </g>
            <g transform="matrix(1,0,0,1,-302.322,-275.954)">
                <path d="M358.527,331.417C357.609,331.417 356.866,330.674 356.866,329.756L356.866,298.752C356.866,297.835 357.609,297.092 358.527,297.092C359.444,297.092 360.188,297.835 360.188,298.752L360.188,329.756C360.188,330.674 359.444,331.417 358.527,331.417Z" style="fill:white;fill-rule:nonzero;"/>
            </g>
            <g transform="matrix(1,0,0,1,-302.322,-275.954)">
                <path d="M281.018,333.632C280.1,333.632 279.357,332.888 279.357,331.971L279.357,296.538C279.357,295.621 280.1,294.877 281.018,294.877C281.935,294.877 282.679,295.621 282.679,296.538L282.679,331.971C282.679,332.888 281.935,333.632 281.018,333.632Z" style="fill:white;fill-rule:nonzero;"/>
            </g>
            <g transform="matrix(1,0,0,1,-302.322,-275.954)">
                <path d="M380.672,335.846C379.755,335.846 379.012,335.103 379.012,334.186L379.012,294.324C379.012,293.406 379.755,292.663 380.672,292.663C381.59,292.663 382.333,293.406 382.333,294.324L382.333,334.186C382.333,335.103 381.59,335.846 380.672,335.846Z" style="fill:white;fill-rule:nonzero;"/>
            </g>
            <g transform="matrix(1,0,0,1,-302.322,-275.954)">
                <path d="M386.209,333.758C385.292,333.758 384.548,333.014 384.548,332.097L384.548,296.412C384.548,295.495 385.292,294.751 386.209,294.751C387.126,294.751 387.87,295.495 387.87,296.412L387.87,332.097C387.87,333.014 387.126,333.758 386.209,333.758Z" style="fill:white;fill-rule:nonzero;"/>
            </g>
            <g transform="matrix(1,0,0,1,-302.322,-275.954)">
                <path d="M391.745,329.756C390.828,329.756 390.084,329.013 390.084,328.095L390.084,300.414C390.084,299.496 390.828,298.752 391.745,298.752C392.663,298.752 393.406,299.496 393.406,300.414L393.406,328.095C393.406,329.013 392.663,329.756 391.745,329.756Z" style="fill:white;fill-rule:nonzero;"/>
            </g>
            <g transform="matrix(1,0,0,1,-302.322,-275.954)">
                <path d="M397.282,333.758C396.364,333.758 395.621,333.014 395.621,332.097L395.621,296.412C395.621,295.495 396.364,294.751 397.282,294.751C398.199,294.751 398.943,295.495 398.943,296.412L398.943,332.097C398.943,333.014 398.199,333.758 397.282,333.758Z" style="fill:white;fill-rule:nonzero;"/>
            </g>
            <g transform="matrix(1,0,0,1,-302.322,-275.954)">
                <path d="M402.818,336.954C401.9,336.954 401.157,336.21 401.157,335.292L401.157,293.216C401.157,292.299 401.9,291.555 402.818,291.555C403.736,291.555 404.479,292.299 404.479,293.216L404.479,335.292C404.479,336.21 403.736,336.954 402.818,336.954Z" style="fill:white;fill-rule:nonzero;"/>
            </g>
            <g transform="matrix(1,0,0,1,-302.322,-275.954)">
                <path d="M408.354,323.667C407.437,323.667 406.693,322.923 406.693,322.005L406.693,306.503C406.693,305.586 407.437,304.843 408.354,304.843C409.272,304.843 410.016,305.586 410.016,306.503L410.016,322.005C410.016,322.923 409.272,323.667 408.354,323.667Z" style="fill:white;fill-rule:nonzero;"/>
            </g>
            <g transform="matrix(1,0,0,1,-302.322,-275.954)">
                <path d="M413.891,328.095C412.973,328.095 412.23,327.352 412.23,326.435L412.23,302.074C412.23,301.157 412.973,300.414 413.891,300.414C414.809,300.414 415.552,301.157 415.552,302.074L415.552,326.435C415.552,327.352 414.809,328.095 413.891,328.095Z" style="fill:white;fill-rule:nonzero;"/>
            </g>
        </g>
    </g>
</svg>
